<?xml version="1.0" encoding="UTF-8" standalone="no"?>
<!-- Created with Inkscape (http://www.inkscape.org/) -->

<svg
   xmlns:dc="http://purl.org/dc/elements/1.1/"
   xmlns:cc="http://creativecommons.org/ns#"
   xmlns:rdf="http://www.w3.org/1999/02/22-rdf-syntax-ns#"
   xmlns:svg="http://www.w3.org/2000/svg"
   xmlns="http://www.w3.org/2000/svg"
   xmlns:sodipodi="http://sodipodi.sourceforge.net/DTD/sodipodi-0.dtd"
   xmlns:inkscape="http://www.inkscape.org/namespaces/inkscape"
   width="80"
   height="80"
   viewBox="0 0 21.166666 21.166667"
   version="1.1"
   id="svg8"
   inkscape:version="0.92.1 r15371"
   sodipodi:docname="primeira_torre.svg"
   inkscape:export-filename="/home/thiago/Programming/Allegro/Chess/art/pawn.png"
   inkscape:export-xdpi="96"
   inkscape:export-ydpi="96">
  <defs
     id="defs2" />
  <sodipodi:namedview
     id="base"
     pagecolor="#ffffff"
     bordercolor="#666666"
     borderopacity="1.0"
     inkscape:pageopacity="0.0"
     inkscape:pageshadow="2"
     inkscape:zoom="5.6"
     inkscape:cx="34.821429"
     inkscape:cy="39.642857"
     inkscape:document-units="px"
     inkscape:current-layer="layer1"
     showgrid="false"
     units="px"
     fit-margin-top="0"
     fit-margin-left="0"
     fit-margin-right="0"
     fit-margin-bottom="0"
     inkscape:window-width="1024"
     inkscape:window-height="706"
     inkscape:window-x="-8"
     inkscape:window-y="-8"
     inkscape:window-maximized="1"
     inkscape:measure-start="10,21.0714"
     inkscape:measure-end="10.3571,0"
     inkscape:snap-others="false"
     inkscape:object-nodes="false"
     inkscape:snap-nodes="false" />
  <metadata
     id="metadata5">
    <rdf:RDF>
      <cc:Work
         rdf:about="">
        <dc:format>image/svg+xml</dc:format>
        <dc:type
           rdf:resource="http://purl.org/dc/dcmitype/StillImage" />
        <dc:title></dc:title>
      </cc:Work>
    </rdf:RDF>
  </metadata>
  <g
     inkscape:label="Camada 1"
     inkscape:groupmode="layer"
     id="layer1"
     transform="translate(0,-275.83332)">
    <path
       style="fill:#226666;fill-opacity:1;stroke:none;stroke-width:0.3197048px;stroke-linecap:butt;stroke-linejoin:miter;stroke-opacity:1"
       d="m 4.7625,295.1479 c 0,-1.20799 1.5899623,-5.54671 3.4395833,-6.61459 h 4.7624997 c 0.114175,2.92801 1.11012,5.19856 3.439584,6.61459 -5.954694,-0.0959 -7.4880587,0 -11.641667,0 z"
       id="path5947"
       inkscape:connector-curvature="0"
       sodipodi:nodetypes="ccccc" />
    <path
       style="fill:#226666;fill-opacity:1;stroke:none;stroke-width:0.26458332px;stroke-linecap:butt;stroke-linejoin:miter;stroke-opacity:1"
       d="m 6.1893601,283.20385 c 0.1782454,-1.49748 -0.4376423,-2.58697 0.2834822,-3.26004 0.7211245,-0.67307 2.0425802,-0.59145 2.6458333,-0.0472 0.6032531,0.54425 -0.212156,1.85216 0.1889879,2.22061 0.4011439,0.36845 0.6558737,0.40776 1.0394345,0 0.383561,-0.40776 -0.6224172,-1.80409 -0.141741,-2.3151 0.480676,-0.51101 1.388751,-0.50113 1.889881,0 0.50113,0.50113 -0.367495,1.99485 0,2.36235 0.367495,0.3675 0.388457,0.3675 0.755952,0 0.367495,-0.3675 -0.423177,-1.93917 0,-2.36235 0.423177,-0.42318 0.61943,-0.5033 1.228423,0 0.608993,0.5033 0.944096,2.31458 0.661458,3.44903 -1.51106,1.32343 -1.464658,1.7481 -1.559152,3.1655 -2.319439,0 -5.4806543,0 -5.4806543,0 -0.062086,-1.5487 -0.083751,-2.42402 -1.5119046,-3.2128 z"
       id="path4517"
       inkscape:connector-curvature="0"
       sodipodi:nodetypes="czzzzzzzzzzcccc" />
  </g>
</svg>
