<?xml version="1.0" encoding="UTF-8" standalone="no"?>
<!-- Created with Inkscape (http://www.inkscape.org/) -->

<svg
   xmlns:dc="http://purl.org/dc/elements/1.1/"
   xmlns:cc="http://creativecommons.org/ns#"
   xmlns:rdf="http://www.w3.org/1999/02/22-rdf-syntax-ns#"
   xmlns:svg="http://www.w3.org/2000/svg"
   xmlns="http://www.w3.org/2000/svg"
   xmlns:sodipodi="http://sodipodi.sourceforge.net/DTD/sodipodi-0.dtd"
   xmlns:inkscape="http://www.inkscape.org/namespaces/inkscape"
   width="80"
   height="80"
   viewBox="0 0 21.166666 21.166667"
   version="1.1"
   id="svg8"
   inkscape:version="0.92.2 (5c3e80d, 2017-08-06)"
   sodipodi:docname="primeiro_cavalo.svg"
   inkscape:export-filename="/home/thiago/Programming/Allegro/Chess/art/knight.png"
   inkscape:export-xdpi="96"
   inkscape:export-ydpi="96">
  <defs
     id="defs2" />
  <sodipodi:namedview
     id="base"
     pagecolor="#ffffff"
     bordercolor="#666666"
     borderopacity="1.0"
     inkscape:pageopacity="0.0"
     inkscape:pageshadow="2"
     inkscape:zoom="5.6"
     inkscape:cx="3.1564797"
     inkscape:cy="38.345961"
     inkscape:document-units="px"
     inkscape:current-layer="layer1"
     showgrid="false"
     units="px"
     fit-margin-top="0"
     fit-margin-left="0"
     fit-margin-right="0"
     fit-margin-bottom="0"
     inkscape:window-width="1366"
     inkscape:window-height="713"
     inkscape:window-x="0"
     inkscape:window-y="27"
     inkscape:window-maximized="1"
     inkscape:measure-start="10,21.0714"
     inkscape:measure-end="10.3571,0"
     inkscape:snap-others="false"
     inkscape:object-nodes="false"
     inkscape:snap-nodes="false" />
  <metadata
     id="metadata5">
    <rdf:RDF>
      <cc:Work
         rdf:about="">
        <dc:format>image/svg+xml</dc:format>
        <dc:type
           rdf:resource="http://purl.org/dc/dcmitype/StillImage" />
        <dc:title />
      </cc:Work>
    </rdf:RDF>
  </metadata>
  <g
     inkscape:label="Camada 1"
     inkscape:groupmode="layer"
     id="layer1"
     transform="translate(0,-275.83332)">
    <path
       style="fill:#1c4864;fill-opacity:1;stroke:none;stroke-width:0.3197048px;stroke-linecap:butt;stroke-linejoin:miter;stroke-opacity:1"
       d="m 4.7625,295.80936 c 0,-1.20799 1.5899623,-5.54671 3.4395833,-6.61459 h 4.7624997 c 0.114175,2.92801 1.11012,5.19856 3.439584,6.61459 -5.954694,-0.0959 -7.4880587,0 -11.641667,0 z"
       id="path5947"
       inkscape:connector-curvature="0"
       sodipodi:nodetypes="ccccc" />
    <path
       style="fill:#1c4864;fill-opacity:1;stroke:none;stroke-width:0.26458332px;stroke-linecap:butt;stroke-linejoin:miter;stroke-opacity:1"
       d="m 10.819568,283.95981 c -0.9481072,1.12708 -2.7708867,0.33294 -3.9687496,1.55916 -1.339604,0.51751 -2.4388895,-0.58526 -2.6930804,-2.36235 0.9742314,-1.82439 3.6771087,-3.04608 4.3939731,-4.29948 1.8507929,-0.96992 3.0034579,-1.42351 5.0081849,-0.89769 1.677209,0.53782 2.434821,2.17567 2.834822,4.15773 -0.991109,5.90031 -2.803708,6.21894 -9.9691229,6.47284 0.4519174,-2.32467 3.3737837,-2.02551 4.3939739,-3.68526 0.972943,-1.61251 0.948107,-2.11926 -10e-7,-0.94495 z"
       id="path841"
       inkscape:connector-curvature="0"
       sodipodi:nodetypes="ccccccccc" />
    <path
       style="fill:#1c4864;fill-opacity:1;stroke:none;stroke-width:0.26458332px;stroke-linecap:butt;stroke-linejoin:miter;stroke-opacity:1"
       d="m 10.029882,278.62123 c 0.138219,-0.34149 0.436114,-1.23663 0.564292,-1.3978 0.528952,-0.077 0.973158,0.29393 1.260045,0.5807 -0.608443,0.16466 -1.031683,0.31446 -1.824337,0.8171 z"
       id="path843"
       inkscape:connector-curvature="0"
       sodipodi:nodetypes="cccc" />
  </g>
</svg>
